<?xml version="1.0" standalone="no"?>
<svg viewBox="0 0 1024 1024" xmlns="http://www.w3.org/2000/svg">
  <path d="M597.333333 512a85.333333 85.333333 0 0 1-85.333333-85.333333V256a85.333333 85.333333 0 0 1 85.333333-85.333333h170.666667a85.333333 85.333333 0 0 1 85.333333 85.333333v170.666667a85.333333 85.333333 0 0 1-85.333333 85.333333h-170.666667z m-298.666666 341.333333a85.333333 85.333333 0 0 1-85.333334-85.333333V597.333333a85.333333 85.333333 0 0 1 85.333334-85.333333h170.666666a85.333333 85.333333 0 0 1 85.333334 85.333333v170.666667a85.333333 85.333333 0 0 1-85.333334 85.333333h-170.666666z m96.725333-574.144a42.666667 42.666667 0 0 1-60.330667 0L233.813333 177.962667a42.666667 42.666667 0 0 1 0-60.330667L334.890667 16.384a42.666667 42.666667 0 0 1 60.330666 0l101.248 101.248a42.666667 42.666667 0 0 1 0 60.330667L395.392 279.189333z m401.578667 401.578667a42.666667 42.666667 0 0 1-60.330667 0L635.392 579.669333a42.666667 42.666667 0 0 1 0-60.330666l101.248-101.248a42.666667 42.666667 0 0 1 60.330667 0l101.248 101.248a42.666667 42.666667 0 0 1 0 60.330666L796.970667 680.917333z" fill="currentColor"></path>
</svg> 