<?xml version="1.0" standalone="no"?>
<svg viewBox="0 0 1024 1024" xmlns="http://www.w3.org/2000/svg">
  <path d="M832 64H192c-35.2 0-64 28.8-64 64v768c0 35.2 28.8 64 64 64h640c35.2 0 64-28.8 64-64V128c0-35.2-28.8-64-64-64zM280 752c-22.1 0-40-17.9-40-40s17.9-40 40-40 40 17.9 40 40-17.9 40-40 40z m0-160c-22.1 0-40-17.9-40-40s17.9-40 40-40 40 17.9 40 40-17.9 40-40 40z m0-160c-22.1 0-40-17.9-40-40s17.9-40 40-40 40 17.9 40 40-17.9 40-40 40z m80 280h384c17.7 0 32-14.3 32-32s-14.3-32-32-32H360c-17.7 0-32 14.3-32 32s14.3 32 32 32z m0-160h384c17.7 0 32-14.3 32-32s-14.3-32-32-32H360c-17.7 0-32 14.3-32 32s14.3 32 32 32z m0-160h384c17.7 0 32-14.3 32-32s-14.3-32-32-32H360c-17.7 0-32 14.3-32 32s14.3 32 32 32z" fill="currentColor"></path>
</svg> 